HIERARCHY
ROOT Hips
{
	OFFSET 0.000000 0.000000 0.000000
	CHANNELS 6 Xposition Yposition Zposition Xrotation Yrotation Zrotation
	JOINT LeftUpLeg_virtual
	{
		OFFSET 0.000000 0.000000 0.000000
		CHANNELS 3 Xrotation Yrotation Zrotation
		JOINT LeftUpLeg
		{
			OFFSET 15.427100 -6.655098 0.678600
			CHANNELS 3 Xrotation Yrotation Zrotation
			JOINT LeftLeg
			{
				OFFSET 4.081073 -39.591068 13.024000
				CHANNELS 3 Xrotation Yrotation Zrotation
				JOINT LeftFoot
				{
					OFFSET -4.081074 -37.707932 -15.979700
					CHANNELS 3 Xrotation Yrotation Zrotation
					JOINT LeftToeBase
					{
						OFFSET 5.346399 -15.068900 20.645000
						CHANNELS 3 Xrotation Yrotation Zrotation
						JOINT LeftToe_End
						{
							OFFSET 2.754700 0.931300 11.300900
							CHANNELS 3 Xrotation Yrotation Zrotation
							End Site
							{
								OFFSET 0 0 0
							}
						}
					}
				}
			}
		}
	}
	JOINT RightUpLeg_virtual
	{
		OFFSET 0.000000 0.000000 0.000000
		CHANNELS 3 Xrotation Yrotation Zrotation
		JOINT RightUpLeg
		{
			OFFSET -15.569500 -6.655098 0.678600
			CHANNELS 3 Xrotation Yrotation Zrotation
			JOINT RightLeg
			{
				OFFSET -4.081825 -39.591045 13.023800
				CHANNELS 3 Xrotation Yrotation Zrotation
				JOINT RightFoot
				{
					OFFSET 4.081824 -37.707954 -15.979600
					CHANNELS 3 Xrotation Yrotation Zrotation
					JOINT RightToeBase
					{
						OFFSET -5.346400 -15.068900 20.645000
						CHANNELS 3 Xrotation Yrotation Zrotation
						JOINT RightToe_End
						{
							OFFSET -2.754700 0.931300 11.300900
							CHANNELS 3 Xrotation Yrotation Zrotation
							End Site
							{
								OFFSET 0 0 0
							}
						}
					}
				}
			}
		}
	}
	JOINT Spine_virtual
	{
		OFFSET 0.000000 0.000000 0.000000
		CHANNELS 3 Xrotation Yrotation Zrotation
		JOINT Spine
		{
			OFFSET -0.279200 12.230698 -2.892100
			CHANNELS 3 Xrotation Yrotation Zrotation
			JOINT Spine1
			{
				OFFSET -0.232667 10.192268 -1.242267
				CHANNELS 3 Xrotation Yrotation Zrotation
				JOINT Spine1_split
				{
					OFFSET -0.232667 10.192268 -1.242267
					CHANNELS 3 Xrotation Yrotation Zrotation
					JOINT Spine2
					{
						OFFSET -0.232667 10.192268 -1.242267
						CHANNELS 3 Xrotation Yrotation Zrotation
						JOINT Neck_virtual
						{
							OFFSET 0.000000 0.000000 0.000000
							CHANNELS 3 Xrotation Yrotation Zrotation
							JOINT Neck
							{
								OFFSET -0.418800 17.814194 8.416900
								CHANNELS 3 Xrotation Yrotation Zrotation
								JOINT Head
								{
									OFFSET 0.000000 7.031097 3.806800
									CHANNELS 3 Xrotation Yrotation Zrotation
									JOINT HeadTop_End
									{
										OFFSET 0.000000 24.646606 12.978600
										CHANNELS 3 Xrotation Yrotation Zrotation
										End Site
										{
											OFFSET 0 0 0
										}
									}
								}
							}
						}
						JOINT LeftShoulder_virtual
						{
							OFFSET 0.000000 0.000000 0.000000
							CHANNELS 3 Xrotation Yrotation Zrotation
							JOINT LeftShoulder
							{
								OFFSET 8.476499 7.247704 -3.868750
								CHANNELS 3 Xrotation Yrotation Zrotation
								JOINT LeftShoulder_split
								{
									OFFSET 8.476499 7.247704 -3.868750
									CHANNELS 3 Xrotation Yrotation Zrotation
									JOINT LeftArm
									{
										OFFSET 9.308998 -2.777710 0.208600
										CHANNELS 3 Xrotation Yrotation Zrotation
										JOINT LeftForeArm
										{
											OFFSET 29.972298 0.000000 0.000000
											CHANNELS 3 Xrotation Yrotation Zrotation
											JOINT LeftHand
											{
												OFFSET 26.026505 0.000000 0.000000
												CHANNELS 3 Xrotation Yrotation Zrotation
												End Site
												{
													OFFSET 0 0 0
												}
											}
										}
									}
								}
							}
						}
						JOINT RightShoulder_virtual
						{
							OFFSET 0.000000 0.000000 0.000000
							CHANNELS 3 Xrotation Yrotation Zrotation
							JOINT RightShoulder
							{
								OFFSET -7.570500 7.247704 -3.868750
								CHANNELS 3 Xrotation Yrotation Zrotation
								JOINT RightShoulder_split
								{
									OFFSET -7.570500 7.247704 -3.868750
									CHANNELS 3 Xrotation Yrotation Zrotation
									JOINT RightArm
									{
										OFFSET -9.308998 -2.777710 0.208500
										CHANNELS 3 Xrotation Yrotation Zrotation
										JOINT RightForeArm
										{
											OFFSET -29.972300 0.000000 0.000000
											CHANNELS 3 Xrotation Yrotation Zrotation
											JOINT RightHand
											{
												OFFSET -26.026505 0.000000 0.000000
												CHANNELS 3 Xrotation Yrotation Zrotation
												End Site
												{
													OFFSET 0 0 0
												}
											}
										}
									}
								}
							}
						}
					}
				}
			}
		}
	}
}
MOTION
Frames: 11
Frame Time: 0.03333333
1.471964 114.140572 4.187202 0.000000 0.000000 0.000000 -92.860916 1.454571 1.441134 -3.106678 17.892659 19.358178 6.125695 4.817803 1.328536 23.049800 29.545223 -31.327544 2.009794 0.000011 0.000024 0.000000 0.000000 0.000000 -92.860916 1.454571 1.441134 -2.786809 -17.346280 -15.083095 7.762351 -6.065409 -7.487116 33.069546 -30.189259 31.987941 -5.697215 0.000019 0.000005 0.000000 0.000000 0.000000 -92.860916 1.454571 1.441134 3.933183 1.345701 -0.325322 17.892640 2.300591 -1.698433 0.000000 0.000000 0.000000 0.000000 0.000000 0.000000 15.709577 2.912671 -1.979398 0.675411 0.828533 -3.845560 19.254915 3.369945 -9.778014 0.000000 0.000000 0.000000 15.709577 2.912671 -1.979398 0.698955 6.300042 -0.044478 0.000000 0.000000 0.000000 17.552377 -48.789356 -38.377672 0.000046 -78.695213 0.000040 0.000000 0.000000 0.000000 15.709577 2.912671 -1.979398 0.904665 3.117776 16.151355 0.000000 0.000000 0.000000 -30.692992 38.671571 59.604452 -179.999978 55.804268 179.999978 0.000000 0.000000 0.000000 
1.403533 114.099564 4.168350 0.000000 0.000000 0.000000 -92.966005 1.023685 1.287166 -2.910169 17.954370 19.365231 6.057393 4.897323 1.476392 23.228988 29.567619 -31.367528 2.018153 0.000002 -0.000021 0.000000 0.000000 0.000000 -92.966005 1.023685 1.287166 -2.869898 -17.332689 -14.920663 7.612131 -6.096323 -7.265779 33.606266 -29.863817 31.512338 -6.237109 0.000020 0.000000 0.000000 0.000000 0.000000 -92.966005 1.023685 1.287166 3.824906 1.336467 -0.282844 17.173677 2.320171 -1.615368 0.000000 0.000000 0.000000 0.000000 0.000000 0.000000 15.078701 2.910058 -1.904893 1.032864 0.830503 -3.592068 20.824683 3.567343 -10.053784 0.000000 0.000000 0.000000 15.078701 2.910058 -1.904893 0.987235 5.865646 -0.070262 0.000000 0.000000 0.000000 17.540349 -48.233635 -39.213441 0.000162 -78.452980 0.000156 0.000000 0.000000 0.000000 15.078701 2.910058 -1.904893 1.003560 3.077426 16.318586 0.000000 0.000000 0.000000 -30.625329 39.526107 60.112550 -179.999950 57.388766 179.999964 0.000000 0.000000 0.000000 
1.318744 114.044006 4.247734 0.000000 0.000000 0.000000 -92.662731 0.787266 1.135408 -3.137853 17.877868 19.412538 5.808628 5.049852 1.479136 24.444117 29.588137 -31.411094 0.988540 0.000009 0.000002 0.000000 0.000000 0.000000 -92.662731 0.787266 1.135408 -3.267243 -17.240390 -14.761473 7.244788 -6.350252 -6.908554 34.537900 -29.473533 31.024860 -7.028804 0.000005 -0.000025 0.000000 0.000000 0.000000 -92.662731 0.787266 1.135408 3.662815 1.262328 -0.243119 16.309073 2.217897 -1.457731 0.000000 0.000000 0.000000 0.000000 0.000000 0.000000 14.304890 2.791180 -1.752529 1.371160 0.810483 -3.366242 22.599865 3.500709 -10.232336 0.000000 0.000000 0.000000 14.304890 2.791180 -1.752529 1.036040 5.431830 -0.068784 0.000000 0.000000 0.000000 17.978699 -47.538974 -40.193751 -0.000021 -78.189458 -0.000020 0.000000 0.000000 0.000000 14.304890 2.791180 -1.752529 1.002753 3.007375 16.447017 0.000000 0.000000 0.000000 -30.000684 40.337670 60.294260 -179.999991 58.563251 179.999978 0.000000 0.000000 0.000000 
1.285303 114.006973 4.389915 0.000000 0.000000 0.000000 -91.609748 0.887436 0.865748 -4.020491 17.587601 19.576721 5.750723 5.509386 1.270288 26.280206 29.559372 -31.456416 -0.570115 0.000015 -0.000020 0.000000 0.000000 0.000000 -91.609748 0.887436 0.865748 -4.350834 -17.010070 -14.190801 6.941568 -6.051677 -7.059473 36.579290 -29.790154 31.354045 -8.215539 0.000001 -0.000008 0.000000 0.000000 0.000000 -91.609748 0.887436 0.865748 3.454205 1.039875 -0.148772 15.322307 1.836153 -1.235604 0.000000 0.000000 0.000000 0.000000 0.000000 0.000000 13.427532 2.371647 -1.472053 1.467845 0.767054 -3.162884 23.529961 3.337671 -10.285320 0.000000 0.000000 0.000000 13.427532 2.371647 -1.472053 0.975470 4.991312 -0.080095 0.000000 0.000000 0.000000 18.149358 -45.959257 -42.436546 0.000066 -78.113814 0.000086 0.000000 0.000000 0.000000 13.427532 2.371647 -1.472053 0.920526 2.913160 16.512392 0.000000 0.000000 0.000000 -28.275993 40.716110 59.228948 -179.999991 58.201251 179.999978 0.000000 0.000000 0.000000 
1.252369 113.985306 4.611275 0.000000 0.000000 0.000000 -90.103630 1.190337 0.556178 -5.483025 17.114986 19.808778 5.986327 6.086433 0.923500 28.294277 29.506315 -31.515210 -2.481298 -0.000012 0.000018 0.000000 0.000000 0.000000 -90.103630 1.190337 0.556178 -5.600350 -16.729942 -13.766584 6.889227 -5.990406 -7.222853 38.081204 -30.052303 32.009378 -9.118863 -0.000006 -0.000003 0.000000 0.000000 0.000000 -90.103630 1.190337 0.556178 3.239774 0.795431 -0.051529 14.311513 1.396545 -1.013137 0.000000 0.000000 0.000000 0.000000 0.000000 0.000000 12.511429 1.904987 -1.191484 1.469671 0.741557 -3.018223 23.462680 3.217816 -10.302687 0.000000 0.000000 0.000000 12.511429 1.904987 -1.191484 0.898278 4.540049 -0.170365 0.000000 0.000000 0.000000 18.277001 -44.009139 -44.987365 0.000027 -78.127945 0.000025 0.000000 0.000000 0.000000 12.511429 1.904987 -1.191484 0.805420 2.813789 16.502201 0.000000 0.000000 0.000000 -25.783184 40.754923 57.315812 179.999991 56.726996 -179.999991 0.000000 0.000000 0.000000 
1.172397 113.986931 4.715523 0.000000 0.000000 0.000000 -88.967783 1.432586 0.396953 -6.487723 16.648786 19.933543 5.770649 6.580872 0.531394 30.154534 29.496011 -31.604484 -4.337504 -0.000018 -0.000034 0.000000 0.000000 0.000000 -88.967783 1.432586 0.396953 -6.323825 -16.560140 -13.693880 6.756012 -6.103305 -7.057838 38.939479 -30.176128 32.360302 -9.735178 0.000009 0.000008 0.000000 0.000000 0.000000 -88.967783 1.432586 0.396953 3.021647 0.510820 -0.015599 13.279693 0.865040 -0.783413 0.000000 0.000000 0.000000 0.000000 0.000000 0.000000 11.566069 1.418214 -0.921089 1.240491 0.709911 -2.806799 22.276956 3.288683 -10.216058 0.000000 0.000000 0.000000 11.566069 1.418214 -0.921089 0.811665 4.082202 -0.348876 0.000000 0.000000 0.000000 18.567844 -41.785024 -47.550216 0.000289 -78.235732 0.000308 0.000000 0.000000 0.000000 11.566069 1.418214 -0.921089 0.659125 2.714203 16.452298 0.000000 0.000000 0.000000 -23.544195 40.816579 55.663784 -179.999950 55.861611 179.999950 0.000000 0.000000 0.000000 
1.061469 114.042427 4.728050 0.000000 0.000000 0.000000 -88.756744 1.503550 0.490816 -6.495859 16.853493 19.926655 5.113496 6.836121 0.132211 31.300424 29.548116 -31.672882 -5.196625 -0.000017 -0.000006 0.000000 0.000000 0.000000 -88.756744 1.503550 0.490816 -6.339259 -16.556049 -13.596222 6.691323 -5.927886 -7.268862 39.232753 -30.273430 32.575050 -9.951125 0.000008 -0.000000 0.000000 0.000000 0.000000 -88.756744 1.503550 0.490816 2.822415 0.266678 -0.013772 12.272503 0.419988 -0.595573 0.000000 0.000000 0.000000 0.000000 0.000000 0.000000 10.646909 0.995676 -0.699683 0.733033 0.775712 -2.705788 20.988003 3.506052 -10.203785 0.000000 0.000000 0.000000 10.646909 0.995676 -0.699683 0.727335 3.621931 -0.566857 0.000000 0.000000 0.000000 19.437853 -40.042080 -49.082457 0.000078 -78.359332 0.000096 0.000000 0.000000 0.000000 10.646909 0.995676 -0.699683 0.490779 2.620172 16.373591 0.000000 0.000000 0.000000 -21.492869 40.844395 54.263025 -179.999978 56.373397 179.999978 0.000000 0.000000 0.000000 
1.014033 114.066612 4.763123 0.000000 0.000000 0.000000 -88.873738 1.501215 0.566900 -6.213326 16.957126 19.974548 4.890110 6.933491 -0.278347 31.358109 29.579128 -31.723230 -5.496422 0.000013 0.000001 0.000000 0.000000 0.000000 -88.873738 1.501215 0.566900 -6.148657 -16.580426 -13.915283 6.705073 -5.917290 -6.810219 39.298429 -30.236220 32.538471 -10.198657 0.000002 0.000002 0.000000 0.000000 0.000000 -88.873738 1.501215 0.566900 2.646740 0.112944 0.037019 11.299346 0.108238 -0.457970 0.000000 0.000000 0.000000 0.000000 0.000000 0.000000 9.774376 0.718794 -0.560868 0.319300 0.838117 -2.640526 19.777294 3.676055 -10.176091 0.000000 0.000000 0.000000 9.774376 0.718794 -0.560868 0.654992 3.163026 -0.815098 0.000000 0.000000 0.000000 20.568474 -38.777340 -49.850224 0.000250 -78.467904 0.000259 0.000000 0.000000 0.000000 9.774376 0.718794 -0.560868 0.306125 2.535588 16.269449 0.000000 0.000000 0.000000 -19.137550 40.572280 52.635118 -179.999964 57.143162 179.999950 0.000000 0.000000 0.000000 
0.965088 114.079308 4.723106 0.000000 0.000000 0.000000 -89.114906 1.348154 0.547489 -5.900884 17.055677 20.014592 4.788027 6.945011 -0.429493 31.093296 29.605069 -31.756685 -5.524230 -0.000012 0.000000 0.000000 0.000000 0.000000 -89.114906 1.348154 0.547489 -5.869154 -16.634098 -14.203465 6.630875 -6.076162 -6.253861 39.312486 -30.216979 32.405105 -10.336013 -0.000004 0.000000 0.000000 0.000000 0.000000 -89.114906 1.348154 0.547489 2.475325 0.006531 0.099660 10.329528 -0.103049 -0.358027 0.000000 0.000000 0.000000 0.000000 0.000000 0.000000 8.908606 0.501512 -0.460859 -0.041664 0.894111 -2.606007 19.168576 3.779869 -10.120722 0.000000 0.000000 0.000000 8.908606 0.501512 -0.460859 0.603292 2.709187 -1.083784 0.000000 0.000000 0.000000 21.701403 -37.652203 -50.428673 -0.000080 -78.576607 -0.000051 0.000000 0.000000 0.000000 8.908606 0.501512 -0.460859 0.067318 2.578869 16.138284 0.000000 0.000000 0.000000 -16.429219 39.962429 51.030625 179.999964 58.029246 -179.999964 0.000000 0.000000 0.000000 
0.914099 114.093094 4.654518 0.000000 0.000000 0.000000 -89.409697 1.069802 0.494280 -5.556478 17.152195 20.055918 4.733188 6.914769 -0.328243 30.709162 29.634634 -31.787328 -5.326310 0.000028 -0.000002 0.000000 0.000000 0.000000 -89.409697 1.069802 0.494280 -5.609584 -16.694978 -14.303640 6.516485 -6.171429 -5.981837 38.997204 -30.140525 32.136382 -10.140600 0.000016 0.000011 0.000000 0.000000 0.000000 -89.409697 1.069802 0.494280 2.309096 -0.079981 0.163401 9.367164 -0.257873 -0.278607 0.000000 0.000000 0.000000 0.000000 0.000000 0.000000 8.052744 0.306485 -0.380549 -0.391598 0.921152 -2.568252 18.649408 3.754054 -10.008121 0.000000 0.000000 0.000000 8.052744 0.306485 -0.380549 0.566543 2.265559 -1.360331 0.000000 0.000000 0.000000 22.772496 -36.549039 -51.005093 0.000072 -78.694421 0.000075 0.000000 0.000000 0.000000 8.052744 0.306485 -0.380549 -0.211387 2.733817 15.985960 0.000000 0.000000 0.000000 -13.721651 39.130642 49.755152 -179.999950 59.111066 179.999964 0.000000 0.000000 0.000000 
0.856799 114.109276 4.547997 0.000000 0.000000 0.000000 -89.685971 0.742098 0.405201 -5.169520 17.268494 20.064902 4.592461 6.910131 -0.140491 30.339017 29.641064 -31.796819 -4.974940 0.000027 0.000002 0.000000 0.000000 0.000000 -89.685971 0.742098 0.405201 -5.485191 -16.749538 -13.973303 6.395784 -6.016889 -6.456261 39.349355 -29.933618 32.208631 -10.261820 -0.000001 -0.000002 0.000000 0.000000 0.000000 -89.685971 0.742098 0.405201 2.148661 -0.153480 0.249549 8.417186 -0.387789 -0.207900 0.000000 0.000000 0.000000 0.000000 0.000000 0.000000 7.211233 0.125644 -0.316283 -0.754295 0.920931 -2.456864 17.596169 3.728626 -9.771328 0.000000 0.000000 0.000000 7.211233 0.125644 -0.316283 0.542541 1.837011 -1.632690 0.000000 0.000000 0.000000 23.802040 -35.477515 -51.573857 -0.000123 -78.819509 -0.000103 0.000000 0.000000 0.000000 7.211233 0.125644 -0.316283 -0.499672 2.941338 15.819563 0.000000 0.000000 0.000000 -10.905610 38.247379 48.563905 179.999991 60.277533 -179.999978 0.000000 0.000000 0.000000 
